<svg data-v-423bf9ae="" xmlns="http://www.w3.org/2000/svg" viewBox="0 0 446 90" class="iconLeft"><!----><!----><!----><g data-v-423bf9ae="" id="2fa4b5f5-0cb1-4842-8639-d7a8919bbe32" fill="#000000" transform="matrix(4.491017818450928,0,0,4.491017818450928,141.77413940429688,1.5269461870193481)"><path d="M3.92 8.20L3.92 12.14L6.72 12.14L6.72 12.14Q6.93 12.14 7.08 12.06L7.08 12.06L7.08 12.06Q7.23 11.98 7.34 11.84L7.34 11.84L7.34 11.84Q7.45 11.70 7.52 11.50L7.52 11.50L7.52 11.50Q7.58 11.31 7.62 11.07L7.62 11.07L7.72 10.42L8.70 10.42L8.59 13.00L0.39 13.00L0.39 12.25L0.98 12.25L0.98 12.25Q1.13 12.25 1.26 12.22L1.26 12.22L1.26 12.22Q1.39 12.20 1.49 12.11L1.49 12.11L1.49 12.11Q1.59 12.02 1.64 11.86L1.64 11.86L1.64 11.86Q1.70 11.69 1.70 11.42L1.70 11.42L1.70 4.65L1.70 4.65Q1.70 4.35 1.64 4.17L1.64 4.17L1.64 4.17Q1.59 3.99 1.49 3.90L1.49 3.90L1.49 3.90Q1.39 3.80 1.26 3.77L1.26 3.77L1.26 3.77Q1.13 3.74 0.98 3.74L0.98 3.74L0.39 3.74L0.39 3.00L8.16 3.00L8.22 5.58L7.24 5.58L7.17 4.92L7.17 4.92Q7.12 4.40 6.91 4.13L6.91 4.13L6.91 4.13Q6.71 3.86 6.28 3.86L6.28 3.86L3.92 3.86L3.92 7.36L7.24 7.36L7.24 8.20L3.92 8.20ZM18.12 13.00L15.00 13.00L15.00 8.39L15.00 8.39Q15.00 7.94 14.95 7.58L14.95 7.58L14.95 7.58Q14.89 7.23 14.76 6.99L14.76 6.99L14.76 6.99Q14.62 6.75 14.41 6.63L14.41 6.63L14.41 6.63Q14.19 6.50 13.88 6.50L13.88 6.50L13.88 6.50Q13.54 6.50 13.30 6.68L13.30 6.68L13.30 6.68Q13.07 6.86 12.93 7.15L12.93 7.15L12.93 7.15Q12.79 7.45 12.73 7.84L12.73 7.84L12.73 7.84Q12.67 8.24 12.67 8.67L12.67 8.67L12.67 11.34L12.67 11.34Q12.67 11.63 12.74 11.81L12.74 11.81L12.74 11.81Q12.81 11.99 12.94 12.09L12.94 12.09L12.94 12.09Q13.07 12.19 13.26 12.22L13.26 12.22L13.26 12.22Q13.45 12.25 13.68 12.25L13.68 12.25L13.72 12.25L13.72 13.00L9.42 13.00L9.42 12.25L9.45 12.25L9.45 12.25Q9.69 12.25 9.88 12.22L9.88 12.22L9.88 12.22Q10.08 12.19 10.23 12.09L10.23 12.09L10.23 12.09Q10.38 11.98 10.46 11.79L10.46 11.79L10.46 11.79Q10.54 11.60 10.54 11.29L10.54 11.29L10.54 7.10L10.54 7.10Q10.54 6.81 10.47 6.63L10.47 6.63L10.47 6.63Q10.40 6.45 10.26 6.35L10.26 6.35L10.26 6.35Q10.13 6.25 9.95 6.22L9.95 6.22L9.95 6.22Q9.76 6.19 9.53 6.19L9.53 6.19L9.49 6.19L9.49 5.49L12.43 5.49L12.61 6.49L12.68 6.49L12.68 6.49Q12.89 6.09 13.13 5.86L13.13 5.86L13.13 5.86Q13.36 5.63 13.63 5.50L13.63 5.50L13.63 5.50Q13.90 5.38 14.19 5.35L14.19 5.35L14.19 5.35Q14.49 5.31 14.82 5.31L14.82 5.31L14.82 5.31Q15.59 5.31 16.14 5.59L16.14 5.59L16.14 5.59Q16.69 5.87 16.94 6.49L16.94 6.49L17.06 6.49L17.06 6.49Q17.27 6.09 17.52 5.86L17.52 5.86L17.52 5.86Q17.77 5.63 18.06 5.50L18.06 5.50L18.06 5.50Q18.34 5.38 18.65 5.35L18.65 5.35L18.65 5.35Q18.96 5.31 19.29 5.31L19.29 5.31L19.29 5.31Q19.83 5.31 20.26 5.47L20.26 5.47L20.26 5.47Q20.69 5.63 20.99 5.95L20.99 5.95L20.99 5.95Q21.29 6.28 21.44 6.79L21.44 6.79L21.44 6.79Q21.60 7.30 21.60 8.01L21.60 8.01L21.60 11.26L21.60 11.26Q21.60 11.59 21.66 11.78L21.66 11.78L21.66 11.78Q21.72 11.98 21.83 12.08L21.83 12.08L21.83 12.08Q21.95 12.18 22.13 12.22L22.13 12.22L22.13 12.22Q22.31 12.25 22.54 12.25L22.54 12.25L22.58 12.25L22.58 13.00L19.47 13.00L19.47 8.39L19.47 8.39Q19.47 7.49 19.22 6.99L19.22 6.99L19.22 6.99Q18.97 6.50 18.35 6.50L18.35 6.50L18.35 6.50Q18.03 6.50 17.79 6.66L17.79 6.66L17.79 6.66Q17.56 6.82 17.41 7.10L17.41 7.10L17.41 7.10Q17.27 7.37 17.20 7.73L17.20 7.73L17.20 7.73Q17.13 8.10 17.13 8.50L17.13 8.50L17.13 11.26L17.13 11.26Q17.13 11.59 17.19 11.78L17.19 11.78L17.19 11.78Q17.25 11.98 17.36 12.08L17.36 12.08L17.36 12.08Q17.48 12.18 17.66 12.22L17.66 12.22L17.66 12.22Q17.83 12.25 18.07 12.25L18.07 12.25L18.12 12.25L18.12 13.00ZM23.13 15.61L23.29 15.61L23.29 15.61Q23.45 15.61 23.62 15.58L23.62 15.58L23.62 15.58Q23.80 15.55 23.94 15.46L23.94 15.46L23.94 15.46Q24.09 15.36 24.19 15.18L24.19 15.18L24.19 15.18Q24.29 15.00 24.29 14.70L24.29 14.70L24.29 7.21L24.29 7.21Q24.29 6.89 24.22 6.70L24.22 6.70L24.22 6.70Q24.14 6.51 24.02 6.41L24.02 6.41L24.02 6.41Q23.89 6.30 23.72 6.27L23.72 6.27L23.72 6.27Q23.54 6.23 23.34 6.23L23.34 6.23L23.25 6.23L23.25 5.49L25.99 5.49L26.24 6.58L26.30 6.58L26.30 6.58Q26.46 6.31 26.66 6.08L26.66 6.08L26.66 6.08Q26.86 5.86 27.12 5.69L27.12 5.69L27.12 5.69Q27.38 5.53 27.71 5.44L27.71 5.44L27.71 5.44Q28.04 5.35 28.44 5.35L28.44 5.35L28.44 5.35Q29.14 5.35 29.68 5.58L29.68 5.58L29.68 5.58Q30.21 5.81 30.58 6.29L30.58 6.29L30.58 6.29Q30.94 6.77 31.13 7.51L31.13 7.51L31.13 7.51Q31.32 8.25 31.32 9.27L31.32 9.27L31.32 9.27Q31.32 10.28 31.13 11.02L31.13 11.02L31.13 11.02Q30.95 11.75 30.59 12.23L30.59 12.23L30.59 12.23Q30.23 12.71 29.71 12.94L29.71 12.94L29.71 12.94Q29.18 13.17 28.50 13.17L28.50 13.17L28.50 13.17Q27.70 13.17 27.20 12.86L27.20 12.86L27.20 12.86Q26.70 12.56 26.40 12.04L26.40 12.04L26.30 12.04L26.30 12.04Q26.33 12.37 26.36 12.67L26.36 12.67L26.36 12.67Q26.38 12.93 26.40 13.23L26.40 13.23L26.40 13.23Q26.41 13.52 26.41 13.74L26.41 13.74L26.41 14.70L26.41 14.70Q26.41 15.00 26.51 15.18L26.51 15.18L26.51 15.18Q26.61 15.36 26.76 15.46L26.76 15.46L26.76 15.46Q26.91 15.55 27.08 15.58L27.08 15.58L27.08 15.58Q27.25 15.61 27.41 15.61L27.41 15.61L27.71 15.61L27.71 16.36L23.13 16.36L23.13 15.61ZM27.84 12.13L27.84 12.13L27.84 12.13Q28.55 12.13 28.85 11.42L28.85 11.42L28.85 11.42Q29.16 10.71 29.16 9.28L29.16 9.28L29.16 9.28Q29.16 7.89 28.85 7.14L28.85 7.14L28.85 7.14Q28.55 6.40 27.86 6.40L27.86 6.40L27.86 6.40Q27.44 6.40 27.16 6.59L27.16 6.59L27.16 6.59Q26.88 6.77 26.71 7.14L26.71 7.14L26.71 7.14Q26.55 7.51 26.48 8.04L26.48 8.04L26.48 8.04Q26.41 8.58 26.41 9.27L26.41 9.27L26.41 9.27Q26.41 9.99 26.48 10.53L26.48 10.53L26.48 10.53Q26.55 11.07 26.71 11.42L26.71 11.42L26.71 11.42Q26.88 11.78 27.15 11.95L27.15 11.95L27.15 11.95Q27.43 12.13 27.84 12.13ZM39.89 9.21L39.89 9.21L39.89 9.21Q39.89 11.19 38.97 12.16L38.97 12.16L38.97 12.16Q38.04 13.13 36.24 13.13L36.24 13.13L36.24 13.13Q35.40 13.13 34.73 12.89L34.73 12.89L34.73 12.89Q34.06 12.65 33.60 12.16L33.60 12.16L33.60 12.16Q33.13 11.68 32.88 10.94L32.88 10.94L32.88 10.94Q32.63 10.20 32.63 9.21L32.63 9.21L32.63 9.21Q32.63 7.24 33.55 6.28L33.55 6.28L33.55 6.28Q34.48 5.31 36.29 5.31L36.29 5.31L36.29 5.31Q37.13 5.31 37.79 5.55L37.79 5.55L37.79 5.55Q38.46 5.79 38.93 6.28L38.93 6.28L38.93 6.28Q39.40 6.76 39.65 7.50L39.65 7.50L39.65 7.50Q39.89 8.23 39.89 9.21ZM34.80 9.21L34.80 9.21L34.80 9.21Q34.80 9.96 34.88 10.53L34.88 10.53L34.88 10.53Q34.96 11.09 35.13 11.48L35.13 11.48L35.13 11.48Q35.31 11.86 35.59 12.06L35.59 12.06L35.59 12.06Q35.87 12.25 36.27 12.25L36.27 12.25L36.27 12.25Q36.67 12.25 36.95 12.06L36.95 12.06L36.95 12.06Q37.23 11.86 37.40 11.48L37.40 11.48L37.40 11.48Q37.58 11.09 37.65 10.53L37.65 10.53L37.65 10.53Q37.73 9.96 37.73 9.21L37.73 9.21L37.73 9.21Q37.73 8.46 37.65 7.90L37.65 7.90L37.65 7.90Q37.57 7.33 37.40 6.96L37.40 6.96L37.40 6.96Q37.22 6.58 36.94 6.40L36.94 6.40L36.94 6.40Q36.66 6.21 36.26 6.21L36.26 6.21L36.26 6.21Q35.85 6.21 35.57 6.40L35.57 6.40L35.57 6.40Q35.29 6.58 35.12 6.96L35.12 6.96L35.12 6.96Q34.95 7.33 34.88 7.90L34.88 7.90L34.88 7.90Q34.80 8.46 34.80 9.21ZM46.56 5.56L47.47 5.56L48.84 9.69L48.84 9.69Q49.01 10.20 49.08 10.55L49.08 10.55L49.08 10.55Q49.16 10.90 49.21 11.16L49.21 11.16L49.25 11.16L49.25 11.16Q49.28 10.99 49.31 10.83L49.31 10.83L49.31 10.83Q49.34 10.67 49.39 10.50L49.39 10.50L49.39 10.50Q49.43 10.33 49.49 10.13L49.49 10.13L49.49 10.13Q49.54 9.93 49.62 9.67L49.62 9.67L50.24 7.62L50.24 7.62Q50.29 7.44 50.33 7.24L50.33 7.24L50.33 7.24Q50.37 7.03 50.37 6.92L50.37 6.92L50.37 6.92Q50.37 6.56 50.14 6.40L50.14 6.40L50.14 6.40Q49.91 6.23 49.44 6.23L49.44 6.23L49.34 6.23L49.34 5.49L52.55 5.49L52.55 6.23L52.37 6.23L52.37 6.23Q52.17 6.23 52.01 6.28L52.01 6.28L52.01 6.28Q51.86 6.32 51.75 6.44L51.75 6.44L51.75 6.44Q51.63 6.56 51.53 6.77L51.53 6.77L51.53 6.77Q51.43 6.99 51.32 7.33L51.32 7.33L49.51 13.00L48.00 13.00L46.47 8.35L44.86 13.00L43.34 13.00L41.54 6.97L41.54 6.97Q41.47 6.75 41.38 6.61L41.38 6.61L41.38 6.61Q41.29 6.47 41.17 6.38L41.17 6.38L41.17 6.38Q41.06 6.30 40.91 6.27L40.91 6.27L40.91 6.27Q40.76 6.23 40.55 6.23L40.55 6.23L40.51 6.23L40.51 5.49L44.61 5.49L44.61 6.23L44.43 6.23L44.43 6.23Q44.00 6.23 43.79 6.35L43.79 6.35L43.79 6.35Q43.59 6.47 43.59 6.82L43.59 6.82L43.59 6.82Q43.59 6.94 43.62 7.10L43.62 7.10L43.62 7.10Q43.66 7.27 43.70 7.42L43.70 7.42L44.22 9.24L44.22 9.24Q44.29 9.50 44.35 9.76L44.35 9.76L44.35 9.76Q44.41 10.03 44.47 10.28L44.47 10.28L44.47 10.28Q44.52 10.53 44.57 10.76L44.57 10.76L44.57 10.76Q44.61 10.99 44.64 11.16L44.64 11.16L44.68 11.16L44.68 11.16Q44.74 10.81 44.85 10.44L44.85 10.44L44.85 10.44Q44.95 10.07 45.13 9.55L45.13 9.55L46.56 5.56ZM56.69 6.22L56.69 6.22L56.69 6.22Q56.10 6.22 55.76 6.80L55.76 6.80L55.76 6.80Q55.41 7.38 55.38 8.50L55.38 8.50L57.80 8.50L57.80 8.50Q57.80 7.97 57.74 7.55L57.74 7.55L57.74 7.55Q57.67 7.12 57.54 6.83L57.54 6.83L57.54 6.83Q57.41 6.54 57.20 6.38L57.20 6.38L57.20 6.38Q56.99 6.22 56.69 6.22ZM56.82 13.13L56.82 13.13L56.82 13.13Q55.93 13.13 55.25 12.87L55.25 12.87L55.25 12.87Q54.57 12.61 54.11 12.12L54.11 12.12L54.11 12.12Q53.66 11.63 53.42 10.91L53.42 10.91L53.42 10.91Q53.19 10.20 53.19 9.28L53.19 9.28L53.19 9.28Q53.19 8.30 53.42 7.55L53.42 7.55L53.42 7.55Q53.66 6.81 54.10 6.31L54.10 6.31L54.10 6.31Q54.54 5.81 55.19 5.56L55.19 5.56L55.19 5.56Q55.84 5.31 56.66 5.31L56.66 5.31L56.66 5.31Q57.42 5.31 58.03 5.53L58.03 5.53L58.03 5.53Q58.64 5.74 59.06 6.17L59.06 6.17L59.06 6.17Q59.49 6.59 59.71 7.22L59.71 7.22L59.71 7.22Q59.94 7.85 59.94 8.68L59.94 8.68L59.94 9.40L55.35 9.40L55.35 9.40Q55.37 10.10 55.50 10.61L55.50 10.61L55.50 10.61Q55.64 11.12 55.87 11.44L55.87 11.44L55.87 11.44Q56.11 11.77 56.45 11.93L56.45 11.93L56.45 11.93Q56.79 12.09 57.22 12.09L57.22 12.09L57.22 12.09Q57.59 12.09 57.89 12.00L57.89 12.00L57.89 12.00Q58.20 11.92 58.45 11.76L58.45 11.76L58.45 11.76Q58.70 11.61 58.89 11.40L58.89 11.40L58.89 11.40Q59.08 11.19 59.20 10.95L59.20 10.95L59.20 10.95Q59.58 11.16 59.58 11.63L59.58 11.63L59.58 11.63Q59.58 11.94 59.41 12.21L59.41 12.21L59.41 12.21Q59.25 12.48 58.91 12.68L58.91 12.68L58.91 12.68Q58.56 12.89 58.05 13.01L58.05 13.01L58.05 13.01Q57.53 13.13 56.82 13.13ZM65.48 12.25L65.48 13.00L60.81 13.00L60.81 12.25L60.85 12.25L60.85 12.25Q61.09 12.25 61.28 12.22L61.28 12.22L61.28 12.22Q61.48 12.18 61.63 12.08L61.63 12.08L61.63 12.08Q61.77 11.97 61.85 11.77L61.85 11.77L61.85 11.77Q61.93 11.57 61.93 11.25L61.93 11.25L61.93 7.18L61.93 7.18Q61.93 6.88 61.85 6.69L61.85 6.69L61.85 6.69Q61.78 6.50 61.65 6.40L61.65 6.40L61.65 6.40Q61.52 6.30 61.33 6.27L61.33 6.27L61.33 6.27Q61.15 6.23 60.92 6.23L60.92 6.23L60.87 6.23L60.87 5.49L63.70 5.49L63.98 6.58L64.05 6.58L64.05 6.58Q64.19 6.27 64.35 6.03L64.35 6.03L64.35 6.03Q64.52 5.80 64.75 5.64L64.75 5.64L64.75 5.64Q64.98 5.48 65.29 5.40L65.29 5.40L65.29 5.40Q65.60 5.33 66.03 5.33L66.03 5.33L66.03 5.33Q66.86 5.33 67.25 5.62L67.25 5.62L67.25 5.62Q67.63 5.91 67.63 6.46L67.63 6.46L67.63 6.46Q67.63 7.10 67.17 7.46L67.17 7.46L67.17 7.46Q66.71 7.81 65.86 7.81L65.86 7.81L65.86 7.81Q65.86 7.53 65.83 7.31L65.83 7.31L65.83 7.31Q65.80 7.09 65.72 6.95L65.72 6.95L65.72 6.95Q65.64 6.80 65.51 6.73L65.51 6.73L65.51 6.73Q65.37 6.65 65.17 6.65L65.17 6.65L65.17 6.65Q64.93 6.65 64.75 6.77L64.75 6.77L64.75 6.77Q64.57 6.90 64.45 7.09L64.45 7.09L64.45 7.09Q64.33 7.29 64.25 7.53L64.25 7.53L64.25 7.53Q64.17 7.78 64.12 8.03L64.12 8.03L64.12 8.03Q64.08 8.28 64.07 8.50L64.07 8.50L64.07 8.50Q64.05 8.73 64.05 8.89L64.05 8.89L64.05 11.31L64.05 11.31Q64.05 11.62 64.13 11.81L64.13 11.81L64.13 11.81Q64.20 12.00 64.33 12.09L64.33 12.09L64.33 12.09Q64.46 12.19 64.64 12.22L64.64 12.22L64.64 12.22Q64.83 12.25 65.03 12.25L65.03 12.25L65.48 12.25Z"></path></g><defs data-v-423bf9ae=""><linearGradient data-v-423bf9ae="" gradientTransform="rotate(25)" id="9813d246-b6c5-4120-bf4b-42a81e9bbf6f" x1="0%" y1="0%" x2="100%" y2="0%"><stop data-v-423bf9ae="" offset="0%" style="stop-color: rgb(0, 102, 120); stop-opacity: 1;"></stop><stop data-v-423bf9ae="" offset="100%" style="stop-color: rgb(79, 168, 255); stop-opacity: 1;"></stop></linearGradient></defs><g data-v-423bf9ae="" id="f14c64e3-39c3-4dca-bfd5-d0d780306a08" transform="matrix(3.860175848007202,0,0,3.860175848007202,0.23718643188476562,-16.421743392944336)" stroke="none" fill="url(#9813d246-b6c5-4120-bf4b-42a81e9bbf6f)"><path d="M12.289 5.343v19.9L1 13.954V5.343h11.289m1-1H0v10.026l13.289 13.289V4.343zM31 5.343v8.612L19.711 25.243v-19.9H31m1-1H18.711v23.315L32 14.369V4.343z"></path></g><!----></svg>